<mxfile host="app.diagrams.net" agent="Mozilla/5.0 (Windows NT 10.0; Win64; x64) AppleWebKit/537.36 (KHTML, like Gecko) Chrome/135.0.0.0 Safari/537.36" version="26.2.14">
  <diagram name="Страница — 1" id="TLbXWVjEVRgBjQUMgrNc">
    <mxGraphModel dx="655" dy="443" grid="1" gridSize="10" guides="1" tooltips="1" connect="1" arrows="1" fold="1" page="1" pageScale="1" pageWidth="827" pageHeight="1169" math="0" shadow="0">
      <root>
        <mxCell id="0" />
        <mxCell id="1" parent="0" />
        <mxCell id="5soVXyM7KszHwK84DE2M-1" value="Продажи в сети отделения" style="rounded=1;whiteSpace=wrap;html=1;fillColor=#f5f5f5;fontColor=#333333;strokeColor=#FFFFFF;gradientColor=none;strokeWidth=1;fontSize=9;" parent="1" vertex="1">
          <mxGeometry x="80" y="120" width="80" height="40" as="geometry" />
        </mxCell>
        <mxCell id="5soVXyM7KszHwK84DE2M-3" value="Продажи через колл-центр" style="rounded=1;whiteSpace=wrap;html=1;fillColor=#f5f5f5;fontColor=#333333;strokeColor=#FFFFFF;gradientColor=none;strokeWidth=1;fontSize=9;" parent="1" vertex="1">
          <mxGeometry x="480" y="120" width="80" height="40" as="geometry" />
        </mxCell>
        <mxCell id="5soVXyM7KszHwK84DE2M-4" value="Digital оповещения клиентов" style="rounded=1;whiteSpace=wrap;html=1;fillColor=#f5f5f5;fontColor=#333333;strokeColor=#FFFFFF;gradientColor=none;strokeWidth=1;fontSize=9;" parent="1" vertex="1">
          <mxGeometry x="400" y="120" width="80" height="40" as="geometry" />
        </mxCell>
        <mxCell id="5soVXyM7KszHwK84DE2M-5" value="Обслуживание депозитных процессов" style="rounded=1;whiteSpace=wrap;html=1;fillColor=#f5f5f5;fontColor=#333333;strokeColor=#FFFFFF;gradientColor=none;strokeWidth=1;fontSize=9;" parent="1" vertex="1">
          <mxGeometry x="160" y="120" width="80" height="40" as="geometry" />
        </mxCell>
        <mxCell id="5soVXyM7KszHwK84DE2M-6" value="Обслуживание кредитных процессов" style="rounded=1;whiteSpace=wrap;html=1;fillColor=#f5f5f5;fontColor=#333333;strokeColor=#FFFFFF;gradientColor=none;strokeWidth=1;fontSize=9;" parent="1" vertex="1">
          <mxGeometry x="240" y="120" width="80" height="40" as="geometry" />
        </mxCell>
        <mxCell id="5soVXyM7KszHwK84DE2M-7" value="Управление договорами" style="rounded=1;whiteSpace=wrap;html=1;fillColor=#f5f5f5;fontColor=#333333;strokeColor=#FFFFFF;gradientColor=none;strokeWidth=1;fontSize=9;" parent="1" vertex="1">
          <mxGeometry x="320" y="120" width="80" height="40" as="geometry" />
        </mxCell>
        <mxCell id="5soVXyM7KszHwK84DE2M-8" value="Управление обслуживанием в сети отделений&amp;nbsp;" style="rounded=1;whiteSpace=wrap;html=1;fillColor=#f5f5f5;fontColor=#333333;strokeColor=#FFFFFF;gradientColor=none;strokeWidth=1;fontSize=9;rotation=-90;" parent="1" vertex="1">
          <mxGeometry x="20" y="180" width="80" height="40" as="geometry" />
        </mxCell>
        <mxCell id="5soVXyM7KszHwK84DE2M-9" value="Колл-центр" style="rounded=1;whiteSpace=wrap;html=1;fillColor=#f5f5f5;fontColor=#333333;strokeColor=#FFFFFF;gradientColor=none;strokeWidth=1;fontSize=9;rotation=-90;" parent="1" vertex="1">
          <mxGeometry x="20" y="500" width="80" height="40" as="geometry" />
        </mxCell>
        <mxCell id="5soVXyM7KszHwK84DE2M-10" value="IT отдел" style="rounded=1;whiteSpace=wrap;html=1;fillColor=#f5f5f5;fontColor=#333333;strokeColor=#FFFFFF;gradientColor=none;strokeWidth=1;fontSize=9;rotation=-90;" parent="1" vertex="1">
          <mxGeometry x="20" y="420" width="80" height="40" as="geometry" />
        </mxCell>
        <mxCell id="5soVXyM7KszHwK84DE2M-11" value="Управление обслуживанием депозитных продуктов" style="rounded=1;whiteSpace=wrap;html=1;fillColor=#f5f5f5;fontColor=#333333;strokeColor=#FFFFFF;gradientColor=none;strokeWidth=1;fontSize=9;rotation=-90;" parent="1" vertex="1">
          <mxGeometry x="20" y="260" width="80" height="40" as="geometry" />
        </mxCell>
        <mxCell id="5soVXyM7KszHwK84DE2M-12" value="Управление обслуживанием кредитных продуктов" style="rounded=1;whiteSpace=wrap;html=1;fillColor=#f5f5f5;fontColor=#333333;strokeColor=#FFFFFF;gradientColor=none;strokeWidth=1;fontSize=9;rotation=-90;" parent="1" vertex="1">
          <mxGeometry x="20" y="340" width="80" height="40" as="geometry" />
        </mxCell>
        <mxCell id="5soVXyM7KszHwK84DE2M-13" value="АБС" style="rounded=1;whiteSpace=wrap;html=1;fillColor=#dae8fc;strokeColor=#FFFFFF;strokeWidth=1;fontSize=9;" parent="1" vertex="1">
          <mxGeometry x="90" y="170" width="340" height="260" as="geometry" />
        </mxCell>
        <mxCell id="5soVXyM7KszHwK84DE2M-14" value="СМС-шлюз" style="rounded=1;whiteSpace=wrap;html=1;fillColor=#dae8fc;strokeColor=#FFFFFF;strokeWidth=1;fontSize=9;" parent="1" vertex="1">
          <mxGeometry x="410" y="440" width="60" height="30" as="geometry" />
        </mxCell>
        <mxCell id="5soVXyM7KszHwK84DE2M-15" value="Система колл-центра" style="rounded=1;whiteSpace=wrap;html=1;fillColor=#dae8fc;strokeColor=#FFFFFF;strokeWidth=1;fontSize=9;" parent="1" vertex="1">
          <mxGeometry x="490" y="420" width="60" height="130" as="geometry" />
        </mxCell>
      </root>
    </mxGraphModel>
  </diagram>
</mxfile>
